#!OML:ASF E:/inclinewalkrobotboard/Project1/Captureday1/Session1/subject1.ASF
:FULLY-SPECIFIED
:DEGREES
138
root 0 0 0 1.8147150566011585 -10.53821775008257 0.9204143858752817
lowerback -0.25215379908082647 -1.6363613678343916 -2.7178763477893515
upperback -0.5635508483873636 -2.1363424468155365 1.7126900826500018
thorax -0.34386875716844845 -1.0613585647573576 3.2177647674186995
lowerneck -25.316365183922603 -1.8598943330221618 -7.748434835014655
upperneck 26.033990740606615 -0.1175436635432966 2.375664441124563
head 12.973662087720943 -0.6360987478370874 2.30187536407574
rclavicle -6.913544979990756E-15 -1.8569556100297107E-16
rhumerus -30.98986952877867 -1.1349211559642 -81.75784994860318
rradius 31.449423691671942
rwrist 18.30861489539841
rhand -18.401763405837944 9.414999827579233
rfingers 7.1250199999999335
rthumb 7.8775198057960125 -20.36463556130424
lclavicle -8.56712026536107E-15 3.2678166641531942E-15
lhumerus -20.377956506953314 -0.02606703579942593 91.53435642761254
lradius 61.063991834750674
lwrist 1.7250520918049999
lhand -28.651368003157064 20.698853214397733
lfingers 7.125020000000006
lthumb -2.0392570980426843 50.66281345893366
rfemur -4.19453054932117 2.427191163000498 24.143392178565524
rtibia 63.26798257658861
rfoot 9.358022901622581 -0.37821674549470297
rtoes 7.74436752010387
lfemur -21.661689342954062 -3.42076025758538 -17.05685284191831
ltibia 34.785666151115755
lfoot -1.690937818699207 -4.444268896992591
ltoes 5.525423546293563
139
root 0 0 0 1.8324535557988852 -10.602936644673974 0.908046640269505
lowerback -0.2657202041246072 -1.6696464457864248 -2.697938949506704
upperback -0.5049464135459137 -2.1803345224495616 1.6868154630078056
thorax -0.26870982088322126 -1.0862971355191158 3.1801375432154275
lowerneck -25.245508565941282 -1.840725827036904 -7.781949283936045
upperneck 26.58508863072816 -0.07586834787140084 2.2836116271425073
head 13.148062419552751 -0.6389284607029012 2.286132278176931
rclavicle -7.51664836636421E-15 1.473561528084359E-15
rhumerus -31.445255649905874 -2.3691406021803547 -81.4376103392889
rradius 31.096957368506327
rwrist 18.63567371778133
rhand -18.132024850433453 9.381256764261844
rfingers 7.125019999999929
rthumb 8.138060164915466 -20.39462665595698
lclavicle -8.549389502156755E-15 4.01627940321969E-15
lhumerus -21.010540294690134 -0.9015786647360207 91.65877545975623
lradius 61.32433705623561
lwrist 2.198237352817319
lhand -28.312493593410437 20.933171280229104
lfingers 7.125020000000007
lthumb -1.7130788327178506 50.92289788601176
rfemur -8.912542167810969 1.4709847675991448 23.81557208687919
rtibia 68.01289515698852
rfoot 7.5566432870581135 -2.9111924085259853
rtoes 11.365614130089664
lfemur -17.503128382564466 -2.890163375305095 -20.60809732259268
ltibia 33.677884532110724
lfoot -4.228928318219398 -3.7641778552540686
ltoes 8.196928977560273
140
root 0 0 0 1.8714857865747803 -10.629422600083737 0.884594912502827
lowerback -0.23429301388488022 -1.6994571489419217 -2.6760624736730954
upperback -0.41376386781604063 -2.221506325743618 1.6781955120215215
thorax -0.18052979102303435 -1.1111647010480972 3.1584700512665957
lowerneck -25.0887270715895 -1.7972478316102845 -7.816432150920292
upperneck 27.097214917322674 -0.014430447637402977 2.2089430014022797
head 13.291343662256935 -0.6270671959888091 2.279849963619431
rclavicle -4.194453148445544E-15 1.947275741203207E-15
rhumerus -31.93191447840802 -3.8656139720679707 -81.15969120442897
rradius 30.75719503503112
rwrist 19.043556874821125
rhand -17.790218090714532 9.298223255339893
rfingers 7.1250199999999255
rthumb 8.467093633270093 -20.46763570985148
lclavicle -6.666743295625945E-15 4.1305459793171975E-15
lhumerus -21.8017127118174 -2.412317018374665 91.77893915980329
lradius 61.94502507139369
lwrist 2.7621749126775175
lhand -27.971424525163393 21.3769788561461
lfingers 7.125020000000006
lthumb -1.384462579078269 51.39777700806592
rfemur -21.04742219238502 -0.8612005773935483 20.529545671836125
rtibia 72.89768129569771
rfoot -1.6019828074772988 -6.303752571642013
rtoes 6.743654917996692
lfemur -10.62960909630133 -3.103547491350925 -25.50267934835106
ltibia 26.12585002562819
lfoot -13.06831407620911 1.0639033886161848
ltoes 10.203581261840647
141
root 0 0 0 1.900539692855547 -10.64820560743452 0.8807561537139217
lowerback -0.23145903746457042 -1.7180108111078605 -2.6737637446276614
upperback -0.36773825774546254 -2.2466046248057556 1.6757158532543817
thorax -0.12704485085045625 -1.1260530028799536 3.154211690763819
lowerneck -25.05199281500724 -1.7834591108461506 -7.846221232058404
upperneck 27.293307755879574 0.007233220719599198 2.1991283720969887
head 13.347471022959509 -0.6213148687448032 2.2864053336866696
rclavicle -3.2801947501506303E-15 1.6600043514007383E-15
rhumerus -32.063658710123704 -3.8971912643505484 -80.97025776066525
rradius 30.625042902228007
rwrist 19.095627137820582
rhand -17.781247632231704 9.308986092579572
rfingers 7.125019999999925
rthumb 8.47570336487993 -20.45782860392665
lclavicle -6.5905722557324744E-15 3.82698601619151E-15
lhumerus -22.21030196722208 -3.611398738580255 91.84322895443951
lradius 62.42034231791813
lwrist 3.129579671118341
lhand -27.81485190648871 21.64244121281876
lfingers 7.125020000000005
lthumb -1.2349088664530665 51.67935907927393
rfemur -26.683421981029767 -1.3027620801406226 19.91513868299182
rtibia 69.41822477659022
rfoot -4.213274759393281 -7.185688846228636
rtoes 4.174007626040866
lfemur -4.4680253151402285 -3.5020704780573366 -27.81771814290361
ltibia 22.09620451523952
lfoot -18.687254344505753 2.4370502764931192
ltoes 7.846004375937337
